<svg id="Capa_1" enable-background="new 0 0 512 512" height="512" viewBox="0 0 512 512" width="512" xmlns="http://www.w3.org/2000/svg"><g><g><path d="m263.575 501.941c-61.363 0-119.097-23.636-162.568-66.555-43.477-42.925-67.839-100.354-68.599-161.708-.672-54.302 17.861-107.303 52.185-149.24 9.004-11.001 22.325-17.351 36.549-17.423 14.336-.066 27.889 6.224 37.124 17.275 25.088 30.028 63.471 47.25 105.308 47.25 41.836 0 80.219-17.222 105.308-47.25 9.171-10.977 22.585-17.258 36.833-17.258h.26c14.269.077 27.638 6.464 36.679 17.525 33.6 41.108 52.104 93.029 52.104 146.198 0 61.751-24.048 119.807-67.712 163.471-43.664 43.667-101.719 67.715-163.471 67.715z" fill="#ffe266"/><path d="m126.752 165.706c-4.318-4.323-11.501-3.667-14.931 1.389-20.943 30.867-32.083 67.683-31.618 105.292 1.257 101.527 81.803 181.056 183.372 181.056 101.119 0 183.386-82.267 183.386-183.386 0-36.754-11.143-72.751-31.639-102.969-3.427-5.053-10.61-5.701-14.925-1.381-15.289 15.307-33.618 28.079-53.727 37.36-25.941 11.972-53.898 18.042-83.095 18.042s-57.154-6.07-83.095-18.042c-20.11-9.281-38.439-22.055-53.728-37.361z" fill="#8bb6ef"/><path d="m224.954 217.419c-15.347-2.987-30.216-7.772-44.473-14.352-4.771-2.202-9.439-4.607-13.993-7.19-2.111 17.055-42.029 189.868-42.713 193.801 21.876 25.641 50.792 45.006 83.957 55.345.84-8.825 12.831-160.525 17.222-227.604z" fill="#ef8bbd"/><path d="m360.949 193.909c-5.616 3.34-8.317 6.406-14.279 9.158-15.562 7.182-31.854 12.223-48.7 15.121.96 19.751 20.686 215.163 20.982 224.808 36.995-9.885 61.332-26.814 85.244-55.367z" fill="#ef8bbd"/><ellipse cx="263.575" cy="336.066" fill="#ffe266" rx="84.189" ry="84.189" transform="matrix(.707 -.707 .707 .707 -160.435 284.807)"/><path d="m442.655 124.559c-9.041-11.061-22.41-17.449-36.679-17.525-.088 0-.173 0-.26 0-14.248 0-27.662 6.281-36.833 17.258-.576.689-1.166 1.364-1.756 2.04 24.499 32.261 37.93 72.004 37.93 112.658 0 49.771-19.382 96.563-54.576 131.757s-81.985 54.576-131.757 54.576c-49.458 0-95.991-19.051-131.028-53.643-32-31.594-51.143-72.939-54.694-117.537-.47 6.482-.674 12.998-.593 19.535.76 61.354 25.122 118.783 68.599 161.708 43.471 42.919 101.205 66.555 162.568 66.555 61.752 0 119.807-24.048 163.471-67.713 43.665-43.665 67.712-101.72 67.712-163.471 0-53.169-18.504-105.09-52.104-146.198z" fill="#efaa66"/><path d="m415.322 167.088c-3.427-5.053-10.61-5.7-14.925-1.381-2.431 2.434-4.947 4.796-7.526 7.097 7.984 21.012 12.186 43.455 12.186 66.185 0 49.771-19.382 96.563-54.576 131.757-35.193 35.193-81.985 54.576-131.757 54.576-26.194 0-51.567-5.346-74.848-15.513 31.97 27.305 73.676 43.634 119.699 43.634 101.119 0 183.386-82.267 183.386-183.386 0-36.754-11.143-72.751-31.639-102.969z" fill="#8388ef"/><path d="m207.731 445.023c.165-1.728.758-8.953 1.637-19.931-22.829-1.116-44.907-6.312-65.37-15.231 18.381 15.678 39.956 27.75 63.733 35.162z" fill="#e068bd"/><path d="m314.925 398.645c2.316 24.148 3.944 41.632 4.027 44.351 36.995-9.885 61.332-26.814 85.244-55.367l-15.897-71.207c-9.126 19.96-21.836 38.341-37.819 54.324-10.835 10.836-22.773 20.166-35.555 27.899z" fill="#e068bd"/><path d="m272.661 248.795 14.951 33.908c1.746 3.96 5.856 6.333 10.159 5.865l36.84-4.006c8.581-.933 14.185 8.772 9.086 15.737l-21.89 29.902c-2.557 3.492-2.557 8.238 0 11.731l21.89 29.902c5.099 6.965-.505 16.67-9.086 15.737l-36.84-4.006c-4.303-.468-8.413 1.905-10.159 5.865l-14.951 33.908c-3.482 7.898-14.689 7.898-18.171 0l-14.951-33.908c-1.746-3.96-5.856-6.333-10.159-5.865l-36.841 4.006c-8.581.933-14.184-8.772-9.086-15.737l21.89-29.902c2.557-3.492 2.557-8.238 0-11.731l-21.89-29.902c-5.099-6.965.505-16.67 9.086-15.737l36.841 4.006c4.303.468 8.413-1.905 10.159-5.865l14.951-33.908c3.482-7.898 14.688-7.898 18.171 0z" fill="#fff"/></g><g><g fill="#440a29"><path d="m450.443 118.192c-10.946-13.392-27.134-21.125-44.411-21.218l-.316-.001c-17.234 0-33.472 7.606-44.552 20.868-23.172 27.734-58.742 43.64-97.588 43.64-38.847 0-74.417-15.906-97.589-43.641-11.1-13.284-27.348-20.885-44.621-20.885-.09 0-.182 0-.272 0-17.233.087-33.373 7.782-44.283 21.11-35.82 43.763-55.16 99.071-54.46 155.735.793 64.018 26.217 123.944 71.59 168.742 45.365 44.792 105.609 69.458 169.635 69.458 64.438 0 125.019-25.094 170.585-70.659 45.564-45.565 70.658-106.147 70.658-170.585-.001-55.483-19.311-109.664-54.376-152.564zm-30.509 308.923c-41.765 41.765-97.294 64.767-156.358 64.767-58.7 0-113.925-22.606-155.5-63.654-41.582-41.054-64.882-95.985-65.608-154.674-.642-51.941 17.083-102.636 49.911-142.744 7.097-8.672 17.6-13.678 28.811-13.734.06-.001.118-.001.177-.001 11.29 0 21.918 4.975 29.18 13.666 27.005 32.322 68.202 50.86 113.028 50.86 44.825 0 86.022-18.538 113.027-50.859 7.247-8.674 17.858-13.648 29.113-13.648h.206c11.259.06 21.809 5.102 28.945 13.832 32.136 39.316 49.833 88.976 49.833 139.832.001 59.063-23 114.592-64.765 156.357z"/><path d="m420.317 163.7c-2.64-3.893-6.841-6.38-11.527-6.823-4.707-.445-9.32 1.218-12.663 4.565-14.733 14.75-32.709 27.249-51.986 36.145-25.141 11.603-52.247 17.486-80.566 17.486-28.318 0-55.424-5.883-80.566-17.486-19.278-8.897-37.255-21.396-51.987-36.146-3.341-3.346-7.956-5.013-12.657-4.564-4.689.443-8.895 2.933-11.538 6.83-21.848 32.2-33.141 69.808-32.658 108.755 1.04 84.089 54.744 153.557 130.072 177.791.902.717 2.018 1.184 3.253 1.286.169.014.336.021.503.021.121 0 .236-.027.356-.034 17.429 5.173 35.958 7.953 55.223 7.953 104.448-.001 189.421-84.975 189.421-189.422 0-38.058-11.301-74.836-32.68-106.357zm-15.65 6.272c1.081-1.082 2.335-1.138 2.985-1.079.639.061 1.837.347 2.675 1.581 20.018 29.514 30.599 63.949 30.599 99.582 0 38.668-12.448 74.479-33.535 103.655l-39.499-175.077c13.445-8.094 25.93-17.805 36.775-28.662zm-109.764 54.826 2.271 27.545c-5.937-2.39-12.186-4.162-18.666-5.246l-.325-.737c-2.59-5.875-8.188-9.524-14.609-9.524-6.42 0-12.017 3.649-14.608 9.524l-.325.738c-6.48 1.084-12.729 2.856-18.667 5.247l2.272-27.546c10.263 1.551 20.715 2.346 31.329 2.346s21.066-.796 31.328-2.347zm46.826 111.268c0 6.727-.867 13.251-2.473 19.482l-12.577-17.181c-1.007-1.376-1.007-3.225-.001-4.601l12.564-17.162c1.609 6.225 2.487 12.74 2.487 19.462zm-57.174 75.257 8.58-19.459c.688-1.56 2.285-2.487 3.984-2.3l21.086 2.293c-9.28 9.082-20.798 15.879-33.65 19.466zm54.502-31.677c-.382.661-1.514 2.179-3.793 1.924l-36.841-4.006c-6.952-.754-13.514 3.035-16.334 9.431l-14.95 33.908c-.925 2.097-2.801 2.323-3.564 2.323s-2.639-.226-3.563-2.323l-14.951-33.909c-2.582-5.854-8.3-9.525-14.58-9.525-.581 0-1.166.031-1.754.095l-36.841 4.006c-2.27.255-3.411-1.263-3.793-1.924s-1.123-2.398.23-4.248l21.89-29.902c4.129-5.641 4.129-13.22-.001-18.861l-21.889-29.902c-1.354-1.849-.612-3.587-.23-4.248s1.518-2.17 3.793-1.924l36.841 4.006c6.95.757 13.513-3.034 16.334-9.431l14.951-33.908c.924-2.097 2.8-2.323 3.563-2.323s2.639.227 3.564 2.323v-.001l14.951 33.908c2.82 6.396 9.384 10.184 16.334 9.431l36.841-4.006c2.276-.25 3.412 1.263 3.793 1.924.382.661 1.123 2.398-.23 4.248l-21.89 29.902c-4.128 5.641-4.128 13.22.001 18.861l21.89 29.902c1.352 1.85.61 3.588.228 4.249zm-130.125 12.212 21.099-2.294c1.695-.186 3.297.741 3.984 2.301l8.589 19.48c-12.859-3.59-24.389-10.391-33.672-19.487zm-23.511-55.792c0-6.725.869-13.248 2.477-19.477l12.574 17.177c1.007 1.376 1.007 3.225 0 4.601l-12.575 17.177c-1.608-6.229-2.476-12.753-2.476-19.478zm57.185-75.28-8.589 19.481c-.688 1.561-2.291 2.489-3.985 2.301l-21.077-2.292c9.28-9.09 20.795-15.901 33.651-19.49zm54.513 21.782c-1.69.183-3.296-.74-3.984-2.301l-8.595-19.493c12.863 3.591 24.393 10.401 33.677 19.5zm-180.304-112.084c.842-1.242 2.045-1.529 2.687-1.59.104-.01.224-.017.355-.017.691 0 1.719.186 2.625 1.093v.001c10.844 10.857 23.33 20.568 36.776 28.663l-39.686 175.91c-20.616-28.586-32.857-63.776-33.333-102.231-.453-36.468 10.121-71.68 30.576-101.829zm12.387 216.225 41.044-181.932c2.544 1.316 5.114 2.574 7.705 3.77 13.618 6.285 27.775 10.983 42.361 14.089l-2.967 35.985c-8.869 5.312-16.754 12.104-23.312 20.033l-.842-.092c-6.385-.694-12.342 2.329-15.552 7.889s-2.849 12.232.944 17.413l.47.642c-3.683 9.828-5.703 20.462-5.703 31.56 0 11.097 2.025 21.727 5.708 31.553l-.475.648c-3.793 5.181-4.154 11.853-.944 17.413s9.169 8.584 15.551 7.889l.85-.092c3.407 4.119 7.17 7.932 11.245 11.39l-2.646 32.087c-28.769-10.286-53.932-27.718-73.437-50.245zm85.24 53.999 2.274-27.581c9.613 5.866 20.402 9.985 31.927 11.912l.324.734c2.59 5.874 8.188 9.524 14.608 9.524 6.42 0 12.018-3.649 14.609-9.524l.319-.723c11.526-1.927 22.317-6.048 31.931-11.916l2.255 27.351c-15.603 4.503-32.08 6.924-49.114 6.924-17.093-.001-33.568-2.336-49.133-6.701zm110.041-4.076-2.62-31.767c4.075-3.458 7.841-7.268 11.248-11.386l.848.092c6.387.694 12.342-2.329 15.552-7.889s2.849-12.233-.944-17.413l-.467-.638c3.683-9.829 5.699-20.465 5.699-31.565 0-11.098-2.021-21.731-5.703-31.558l.471-.644c3.792-5.181 4.153-11.853.943-17.413s-9.169-8.587-15.552-7.889l-.847.092c-6.557-7.927-14.44-14.716-23.308-20.027l-2.968-35.99c14.586-3.106 28.744-7.804 42.362-14.089 2.592-1.196 5.161-2.454 7.705-3.77l40.861 181.115c-19.547 22.614-44.701 40.255-73.28 50.739z"/><path d="m253.32 303.891c-3.333 0-6.036 2.702-6.036 6.035v13.991c0 3.333 2.702 6.035 6.036 6.035s6.035-2.702 6.035-6.035v-13.991c.001-3.332-2.701-6.035-6.035-6.035z"/><path d="m291.759 316.039c-3.333 0-6.035 2.702-6.035 6.035v13.991c0 3.333 2.702 6.035 6.035 6.035s6.035-2.702 6.035-6.035v-13.991c.001-3.332-2.702-6.035-6.035-6.035z"/><path d="m266.45 346.877c-3.333 0-6.035 2.702-6.035 6.035v13.991c0 3.333 2.702 6.035 6.035 6.035s6.035-2.702 6.035-6.035v-13.991c.001-3.333-2.702-6.035-6.035-6.035z"/></g><g fill="#fff"><path d="m110.544 285.745c-5.214 0-9.624-4.023-10.02-9.308-.57-7.603-.436-15.277.397-22.809.612-5.522 5.58-9.496 11.105-8.892 5.522.611 9.503 5.583 8.892 11.105-.697 6.301-.809 12.724-.331 19.092.415 5.54-3.739 10.367-9.279 10.783-.257.019-.512.029-.764.029z"/><path d="m117.443 234.171c-1.214 0-2.447-.221-3.646-.688-5.177-2.015-7.74-7.845-5.725-13.023.669-1.72 1.34-3.254 2.051-4.691 2.463-4.979 8.496-7.02 13.476-4.558 4.98 2.463 7.02 8.496 4.557 13.476-.446.902-.883 1.906-1.336 3.07-1.549 3.979-5.351 6.414-9.377 6.414z"/></g></g><g><path d="m266.806 34.588 8.263 23.234c.354.995 1.054 1.783 1.938 2.181l20.642 9.3c2.916 1.314 2.916 5.961 0 7.275l-20.642 9.3c-.884.398-1.584 1.187-1.938 2.181l-8.263 23.234c-1.167 3.283-5.296 3.283-6.463 0l-8.263-23.234c-.354-.995-1.054-1.783-1.938-2.181l-20.643-9.3c-2.916-1.314-2.916-5.961 0-7.275l20.643-9.3c.884-.398 1.584-1.187 1.938-2.181l8.263-23.234c1.168-3.283 5.296-3.283 6.463 0z" fill="#fef2a8"/><path d="m36.477 17.113 6.129 17.235c.262.738.782 1.323 1.438 1.618l15.312 6.899c2.163.975 2.163 4.421 0 5.396l-15.312 6.899c-.655.295-1.175.88-1.438 1.618l-6.129 17.235c-.866 2.435-3.928 2.435-4.794 0l-6.129-17.235c-.262-.738-.782-1.323-1.438-1.618l-15.312-6.9c-2.163-.975-2.163-4.421 0-5.396l15.312-6.899c.656-.295 1.175-.88 1.438-1.618l6.129-17.235c.866-2.434 3.929-2.434 4.794.001z" fill="#fef2a8"/><g fill="#ffe266"><ellipse cx="369.774" cy="18.043" rx="18.043" ry="18.043" transform="matrix(.924 -.383 .383 .924 21.243 142.88)"/><ellipse cx="151.736" cy="25.826" rx="7.783" ry="7.783" transform="matrix(.973 -.229 .229 .973 -1.882 35.433)"/><circle cx="480.273" cy="76.975" r="7.783"/></g></g></g></svg>